<svg xmlns="http://www.w3.org/2000/svg" viewBox="0 0 197.35 31.06"><defs><style>.cls-1{fill:#dac182;}.cls-2{fill:#231815;}</style></defs><g id="レイヤー_2" data-name="レイヤー 2"><g id="design"><polygon class="cls-1" points="26.59 16.97 26.59 30.39 0.67 30.39 0.67 0.68 40.65 0.68 40.65 16.88 26.59 16.97"/><path class="cls-2" d="M56.27,8.51v7.15H54.75V1.49H69.66V2.81H56.27V7.17H69.66V8.51Z"/><path class="cls-2" d="M97.63,15.66l-6-6.35h-6v6.35H84.07V1.49H95.72c2.36,0,4.31,1.26,4.31,3.78,0,2.72-2,4-4.31,4H93.55l6.12,6.37ZM95.43,2.79H85.59V8.05h10A2.66,2.66,0,0,0,98.52,5.3C98.52,3.63,97.15,2.79,95.43,2.79Z"/><path class="cls-2" d="M130.68,15.66l-2.17-3.53H117.18L115,15.66h-1.83L122.29,1.2h1.17l9.09,14.46ZM122.85,2.94,118,10.81h9.69Z"/><path class="cls-2" d="M165.78,15.66V3.91l-8.92,6.68h-.17l-8.83-6.66V15.66h-1.51V1.13h.19l10.28,7.7,10.28-7.7h.19V15.66Z"/><path class="cls-2" d="M182.44,15.66V1.49h14.91V2.81H184V7.06h13.4V8.37H184v6h13.4v1.32Z"/><path class="cls-2" d="M27.27,23.23v7.15H25.76V16.21H40.67v1.32H27.27v4.36H40.65v1.34Z"/><path class="cls-2" d="M59.41,30.84l-.51-2.06H56.53L56,30.84H55.2l2.14-8.49h.77l2.16,8.49Zm-1.69-7.07-1,4.29h2.05Z"/><path class="cls-2" d="M72.89,31h-.12l-3.61-6v5.84h-.83V22.35h.14l3.61,6V22.54h.81Z"/><path class="cls-2" d="M83.64,30.84H81.73v-8.3h1.91c2.14,0,3,2,3,4S85.66,30.84,83.64,30.84Zm0-7.56H82.55V30.1h1.09c1.56,0,2.18-1.86,2.18-3.51S85.14,23.28,83.64,23.28Z"/><path class="cls-2" d="M106.51,27.75h-1.17v3.09h-.82v-8.3h2A2.3,2.3,0,0,1,109,25.05,2.5,2.5,0,0,1,106.51,27.75Zm-.11-4.47h-1.06V27h1a1.77,1.77,0,0,0,1.73-2A1.61,1.61,0,0,0,106.4,23.28Z"/><path class="cls-2" d="M120.61,30.84l-.51-2.06h-2.37l-.5,2.06h-.83l2.14-8.49h.78l2.15,8.49Zm-1.69-7.07-1,4.29h2Z"/><path class="cls-2" d="M133.14,30.84l-2.08-3.72h-.7v3.72h-.83v-8.3h2a2.15,2.15,0,0,1,2.37,2.2,2.2,2.2,0,0,1-2,2.24l2.22,3.86Zm-1.7-7.56h-1.08V26.4h.69c1.06,0,2-.4,2-1.65A1.47,1.47,0,0,0,131.44,23.28Z"/><path class="cls-2" d="M144.09,23.29v7.55h-.83V23.29h-1.91v-.75H146v.75Z"/><path class="cls-2" d="M158.52,31h-.13l-3.6-6v5.84H154V22.35h.14l3.6,6V22.54h.82Z"/><path class="cls-2" d="M167.36,30.84v-8.3h3.91v.75h-3.09v2.54h3.09v.71h-3.09v3.55h3.09v.75Z"/><path class="cls-2" d="M183.2,30.84l-2.08-3.72h-.7v3.72h-.83v-8.3h2a2.15,2.15,0,0,1,2.37,2.2,2.2,2.2,0,0,1-2,2.24l2.22,3.86Zm-1.7-7.56h-1.08V26.4h.69c1.06,0,2-.4,2-1.65A1.47,1.47,0,0,0,181.5,23.28Z"/><path class="cls-2" d="M192.4,30.91a6.23,6.23,0,0,1-.74,0l.06-.8a4.38,4.38,0,0,0,.71.07c1.24,0,2.37-.5,2.37-1.48,0-.67-.46-1.13-1.48-1.87-.75-.56-1.65-1.22-1.65-2.29s1.07-2,2.87-2c.31,0,.54,0,.84.05l-.06.78a4.14,4.14,0,0,0-.79-.06c-1.09,0-2,.38-2,1.19s.69,1.17,1.42,1.71a3.28,3.28,0,0,1,1.71,2.47C195.65,30.09,194.15,30.91,192.4,30.91Z"/><path class="cls-2" d="M41.32,31.06H0V0H41.32Zm-40-1.35H40V1.35H1.35Z"/></g></g></svg>